# xmcd
#
# Track frame offsets:
#	150
#	10904
#	32072
#	45411
#	56476
#	69718
#	83668
#	96771
#	113368
#	126154
#	140891
#	152549
#	164945
#	182625
#	193894
#	205935
#	219613
#	231348
#	245980
#	263608
#	274730
#
# Disc length: 3846 seconds
#
# Revision: 0
# Processed by: cddbd v1.5.2PL0 Copyright (c) Steve Scherf et al.
# Submitted via: EZCDAudioConverter 8.0.2.1
#
DISCID=360f0415
DTITLE=Tanya Tucker - Delta Dawn-What’s Your Mama’s Name-Would You Lay With Me
DTITLE=You Are So Beautiful 2 CD-02
DYEAR=2018
DGENRE=USA Countey
TTITLE0=Would You Lay With Me (In A Field Of Stone) Would You Lay With Me (In 
TTITLE0=A Field Of Stone)
TTITLE1=How Can I Tell Himwould You Lay With Me (In A Field Of Stone)
TTITLE2=Let Me Be Therewould You Lay With Me (In A Field Of Stone)
TTITLE3=Bed Of Roseswould You Lay With Me (In A Field Of Stone)
TTITLE4=The Man That Turned My Mama Onwould You Lay With Me (In A Field Of Sto
TTITLE4=ne)
TTITLE5=I Believe The South Is Gonna Rise Againwould You Lay With Me (In A Fie
TTITLE5=ld Of Stone)
TTITLE6=Old Dan Tucker’S Daughterwould You Lay With Me (In A Field Of Stone)
TTITLE7=No Man’S Landwould You Lay With Me (In A Field Of Stone)
TTITLE8=Why Me, Lordwould You Lay With Me (In A Field Of Stone)
TTITLE9=The Baptism Of Jesse Taylorwould You Lay With Me (In A Field Of Stone)
TTITLE10=What If We Were Running Out Of Lovewould You Lay With Me (In A Field 
TTITLE10=Of Stone)
TTITLE11=You Are So Beautiful (You Are So Beautiful)
TTITLE12=The Best Of My Love (You Are So Beautiful)
TTITLE13=There Is A Place (You Are So Beautiful)
TTITLE14=Can I Be Your Lady? (You Are So Beautiful)
TTITLE15=Loving Arms (You Are So Beautiful)
TTITLE16=You Know Just What I’D Do (You Are So Beautiful)
TTITLE17=Almost Persuaded (You Are So Beautiful)
TTITLE18=Spring (You Are So Beautiful)
TTITLE19=Guess I’Ll Have To Love Him More (You Are So Beautiful)
TTITLE20=I Sing The Old Songs (You Are So Beautiful)
EXTD=
EXTT0=
EXTT1=
EXTT2=
EXTT3=
EXTT4=
EXTT5=
EXTT6=
EXTT7=
EXTT8=
EXTT9=
EXTT10=
EXTT11=
EXTT12=
EXTT13=
EXTT14=
EXTT15=
EXTT16=
EXTT17=
EXTT18=
EXTT19=
EXTT20=
PLAYORDER=
